<svg width="139" height="45" viewBox="0 0 139 45" fill="none" xmlns="http://www.w3.org/2000/svg">
<g clip-path="url(#clip0)">
<rect x="0.5" y="6.5" width="32" height="32" rx="5" fill="#80B4D3"/>
<rect x="5.5" y="26.5" width="22" height="8" rx="2" fill="#026AA7"/>
<rect x="5.5" y="17.5" width="22.2857" height="7.42857" rx="2" fill="#026AA7"/>
<path d="M62.6543 26.1865C62.1966 29.0068 60.9287 31.2581 58.8506 32.9404C56.7725 34.6104 54.2428 35.4206 51.2617 35.3711C49.5423 35.334 48.0332 34.9258 46.7344 34.1465C45.4479 33.3672 44.4398 32.2354 43.71 30.751C42.9801 29.2542 42.5719 27.5658 42.4854 25.6855C42.4111 24.2754 42.5843 22.3581 43.0049 19.9336C43.4255 17.4967 44.2295 15.3135 45.417 13.3838C46.6169 11.4541 48.0827 10.0007 49.8145 9.02344C51.5586 8.04622 53.4945 7.57617 55.6221 7.61328C58.3063 7.66276 60.4277 8.51009 61.9863 10.1553C63.5573 11.7881 64.3923 14.0456 64.4912 16.9277H59.9453C59.8835 14.998 59.4753 13.6064 58.7207 12.7529C57.9785 11.887 56.8714 11.4355 55.3994 11.3984C53.3831 11.3366 51.6947 12.0602 50.334 13.5693C48.9733 15.0785 48.0579 17.2741 47.5879 20.1562L47.2168 22.624L47.0498 24.5166C46.9508 25.7907 47.0374 26.9906 47.3096 28.1162C47.5941 29.2295 48.0889 30.083 48.7939 30.6768C49.499 31.2581 50.3958 31.5674 51.4844 31.6045C54.9355 31.7406 57.1497 29.9469 58.127 26.2236L62.6543 26.1865ZM78.2031 19.043C77.6341 18.9193 77.0589 18.8574 76.4775 18.8574C74.5479 18.8079 73.014 19.6058 71.876 21.251L69.4639 35H65.0664L68.5361 14.9238L72.7109 14.9053L72.2656 17.1875C73.6387 15.3691 75.222 14.4785 77.0156 14.5156C77.4238 14.5156 77.9867 14.6084 78.7041 14.7939L78.2031 19.043ZM86.9238 35.3711C85.1797 35.334 83.6644 34.8949 82.3779 34.0537C81.1038 33.2126 80.1576 32.0622 79.5391 30.6025C78.9329 29.1429 78.7041 27.5163 78.8525 25.7227L78.9082 24.9619C79.1309 22.9209 79.7246 21.0902 80.6895 19.4697C81.6667 17.8369 82.8789 16.5999 84.3262 15.7588C85.7734 14.9176 87.3444 14.5156 89.0391 14.5527C91.5501 14.6022 93.4303 15.5361 94.6797 17.3545C95.9414 19.1729 96.4176 21.5417 96.1084 24.4609L95.8486 26.3906H83.2129C83.1016 27.9863 83.4232 29.2728 84.1777 30.25C84.9323 31.2272 85.9714 31.7282 87.2949 31.7529C89.1875 31.8148 90.9316 30.9922 92.5273 29.2852L94.7539 31.623C93.9128 32.8229 92.8057 33.7568 91.4326 34.4248C90.0596 35.0804 88.5566 35.3958 86.9238 35.3711ZM88.7979 18.1523C86.4723 18.0781 84.7282 19.7233 83.5654 23.0879L91.8965 23.1064L91.9707 22.7168C92.0573 22.1478 92.0635 21.5911 91.9893 21.0469C91.8532 20.1686 91.5068 19.4759 90.9502 18.9688C90.3936 18.4616 89.6761 18.1895 88.7979 18.1523ZM102.473 35H98.0752L103.029 6.5H107.427L102.473 35ZM112.084 35H107.687L112.641 6.5H117.038L112.084 35ZM118.077 24.8877C118.287 22.9209 118.863 21.1335 119.803 19.5254C120.755 17.9173 121.974 16.6742 123.458 15.7959C124.942 14.9176 126.588 14.5033 128.394 14.5527C130.113 14.5775 131.597 15.0352 132.847 15.9258C134.096 16.8164 135.005 18.0348 135.574 19.5811C136.156 21.1273 136.36 22.8467 136.187 24.7393C135.989 26.8669 135.407 28.7471 134.442 30.3799C133.49 32.0127 132.265 33.2682 130.769 34.1465C129.284 35.0124 127.633 35.4206 125.814 35.3711C124.107 35.3464 122.629 34.8949 121.38 34.0166C120.143 33.126 119.234 31.9137 118.652 30.3799C118.071 28.8337 117.861 27.1328 118.021 25.2773L118.077 24.8877ZM122.4 27.4297C122.462 28.7285 122.802 29.7738 123.421 30.5654C124.052 31.3447 124.924 31.7529 126.037 31.79C127.546 31.8271 128.808 31.2458 129.822 30.0459C130.849 28.846 131.492 27.207 131.752 25.1289L131.863 23.3105C131.863 21.7272 131.548 20.484 130.917 19.5811C130.286 18.6781 129.371 18.2018 128.171 18.1523C126.291 18.1029 124.806 19.0244 123.718 20.917C123.062 22.0674 122.648 23.391 122.475 24.8877C122.376 25.9268 122.351 26.7741 122.4 27.4297Z" fill="#80B4D3"/>
</g>
<defs>
<clipPath id="clip0">
<rect width="138" height="45" fill="white" transform="translate(0.5)"/>
</clipPath>
</defs>
</svg>
